<svg xmlns:xlink="http://www.w3.org/1999/xlink" width="57.105" xmlns="http://www.w3.org/2000/svg" height="102.057" id="screenshot-6be00a50-3b80-80db-8002-4c13a9e6a1c1" viewBox="-0.048 0 57.105 102.057" style="-webkit-print-color-adjust: exact;" fill="none" version="1.1"><g id="shape-6be00a50-3b80-80db-8002-4c13a9e6a1c1" width="60.151581mm" version="1.1" height="107.97171mm" rx="0" ry="0" style="fill: rgb(0, 0, 0);"><g id="shape-6be00a50-3b80-80db-8002-4c13a9e7628d"><defs id="defs2" rx="0" ry="0" style="fill: rgb(0, 0, 0);"/></g><g id="shape-6be00a50-3b80-80db-8002-4c13a9e79dce" rx="0" ry="0" style="fill: rgb(0, 0, 0);"><g id="shape-6be00a50-3b80-80db-8002-4c13a9e96ed0"><g class="fills" id="fills-6be00a50-3b80-80db-8002-4c13a9e96ed0"><path rx="0" ry="0" d="M18.629,65.960C17.055,63.506,-2.061,42.484,1.486,27.730C5.033,12.977,16.063,15.765,16.063,15.765C16.063,15.765,22.282,5.884,35.412,10.056C48.543,14.228,53.655,54.343,53.655,54.343C53.655,54.343,58.572,100.629,54.047,100.961C49.523,101.294,18.629,65.960,18.629,65.960ZZ" style="fill: rgb(0, 0, 0);"/></g><g id="strokes-6be00a50-3b80-80db-8002-4c13a9e96ed0" class="strokes"><g class="stroke-shape"><path rx="0" ry="0" d="M18.629,65.960C17.055,63.506,-2.061,42.484,1.486,27.730C5.033,12.977,16.063,15.765,16.063,15.765C16.063,15.765,22.282,5.884,35.412,10.056C48.543,14.228,53.655,54.343,53.655,54.343C53.655,54.343,58.572,100.629,54.047,100.961C49.523,101.294,18.629,65.960,18.629,65.960ZZ" style="fill: none; stroke-width: 2.191; stroke: rgb(0, 0, 0);"/></g></g></g><g id="shape-6be00a50-3b80-80db-8002-4c13a9e9de9d"><g class="fills" id="fills-6be00a50-3b80-80db-8002-4c13a9e9de9d"><rect rx="0" ry="0" x="10.42729663844068" y="3.5575552275764153" transform="matrix(0.352261, -0.935902, 0.492386, 0.870377, 3.357301, 13.332568)" width="4.843353476228003" height="13.05395816948078" style="fill: rgb(0, 0, 0);"/></g><g id="strokes-6be00a50-3b80-80db-8002-4c13a9e9de9d" class="strokes"><g class="stroke-shape"><rect rx="0" ry="0" x="10.42729663844068" y="3.5575552275764153" transform="matrix(0.352261, -0.935902, 0.492386, 0.870377, 3.357301, 13.332568)" width="4.843353476228003" height="13.05395816948078" style="fill: none; stroke-width: 2.50351; stroke: rgb(0, 0, 0);"/></g></g></g></g></g></svg>